<svg width="38" height="38" viewBox="0 0 38 38" fill="none" xmlns="http://www.w3.org/2000/svg">
<path d="M19 34.8334C27.7445 34.8334 34.8333 27.7445 34.8333 19C34.8333 10.2555 27.7445 3.16669 19 3.16669C10.2555 3.16669 3.16666 10.2555 3.16666 19C3.16666 27.7445 10.2555 34.8334 19 34.8334Z" stroke="black" stroke-width="2" stroke-linecap="round" stroke-linejoin="round"/>
<path d="M14.3925 14.25C14.7647 13.1918 15.4995 12.2995 16.4666 11.7311C17.4337 11.1627 18.5707 10.955 19.6763 11.1446C20.782 11.3343 21.7848 11.9091 22.5072 12.7672C23.2296 13.6254 23.625 14.7116 23.6233 15.8333C23.6233 19 18.8733 20.5833 18.8733 20.5833" stroke="black" stroke-width="2" stroke-linecap="round" stroke-linejoin="round"/>
<path d="M19 26.9167H19.0158" stroke="black" stroke-width="2" stroke-linecap="round" stroke-linejoin="round"/>
</svg>
